<?xml version="1.0" encoding="UTF-8"?>
<svg width="400" height="300" xmlns="http://www.w3.org/2000/svg">
  <!-- Base background -->
  <rect width="400" height="300" fill="#F8F8FF"/>
  
  <!-- Custom nature background elements -->
  
      <!-- Snowflake pattern -->
      <defs>
        <linearGradient id="winterGradient" x1="0%" y1="0%" x2="0%" y2="100%">
          <stop offset="0%" style="stop-color:#B0E0E6;stop-opacity:0.2" />
          <stop offset="100%" style="stop-color:#F8F8FF;stop-opacity:0.1" />
        </linearGradient>
      </defs>
      <rect width="400" height="300" fill="url(#winterGradient)" />
      
    <g transform="translate(292.21176105433756, 219.44452619740042)">
      <path d="M0,0 L3.553721254911137,0 M0,0 L-3.553721254911137,0 M0,0 L0,3.553721254911137 M0,0 L0,-3.553721254911137 M0,0 L2.4876048784377955,2.4876048784377955 M0,0 L-2.4876048784377955,2.4876048784377955 M0,0 L2.4876048784377955,-2.4876048784377955 M0,0 L-2.4876048784377955,-2.4876048784377955" stroke="#FFFFFF80" stroke-width="1" />
    </g>
    <g transform="translate(151.90171118310718, 116.45329420364833)">
      <path d="M0,0 L3.9338976017240967,0 M0,0 L-3.9338976017240967,0 M0,0 L0,3.9338976017240967 M0,0 L0,-3.9338976017240967 M0,0 L2.7537283212068675,2.7537283212068675 M0,0 L-2.7537283212068675,2.7537283212068675 M0,0 L2.7537283212068675,-2.7537283212068675 M0,0 L-2.7537283212068675,-2.7537283212068675" stroke="#FFFFFF80" stroke-width="1" />
    </g>
    <g transform="translate(111.00869393328661, 204.4781962393182)">
      <path d="M0,0 L7.9566877371343,0 M0,0 L-7.9566877371343,0 M0,0 L0,7.9566877371343 M0,0 L0,-7.9566877371343 M0,0 L5.56968141599401,5.56968141599401 M0,0 L-5.56968141599401,5.56968141599401 M0,0 L5.56968141599401,-5.56968141599401 M0,0 L-5.56968141599401,-5.56968141599401" stroke="#FFFFFF80" stroke-width="1" />
    </g>
    <g transform="translate(349.4615815720787, 217.0034267837089)">
      <path d="M0,0 L6.340931417229912,0 M0,0 L-6.340931417229912,0 M0,0 L0,6.340931417229912 M0,0 L0,-6.340931417229912 M0,0 L4.438651992060938,4.438651992060938 M0,0 L-4.438651992060938,4.438651992060938 M0,0 L4.438651992060938,-4.438651992060938 M0,0 L-4.438651992060938,-4.438651992060938" stroke="#FFFFFF80" stroke-width="1" />
    </g>
    <g transform="translate(376.31582672821173, 78.95990955492437)">
      <path d="M0,0 L4.821086962114431,0 M0,0 L-4.821086962114431,0 M0,0 L0,4.821086962114431 M0,0 L0,-4.821086962114431 M0,0 L3.3747608734801013,3.3747608734801013 M0,0 L-3.3747608734801013,3.3747608734801013 M0,0 L3.3747608734801013,-3.3747608734801013 M0,0 L-3.3747608734801013,-3.3747608734801013" stroke="#FFFFFF80" stroke-width="1" />
    </g>
    <g transform="translate(160.96446390161572, 70.90187166719092)">
      <path d="M0,0 L5.931675793647935,0 M0,0 L-5.931675793647935,0 M0,0 L0,5.931675793647935 M0,0 L0,-5.931675793647935 M0,0 L4.152173055553554,4.152173055553554 M0,0 L-4.152173055553554,4.152173055553554 M0,0 L4.152173055553554,-4.152173055553554 M0,0 L-4.152173055553554,-4.152173055553554" stroke="#FFFFFF80" stroke-width="1" />
    </g>
    <g transform="translate(293.37163294592546, 270.3945205629998)">
      <path d="M0,0 L7.158015571568119,0 M0,0 L-7.158015571568119,0 M0,0 L0,7.158015571568119 M0,0 L0,-7.158015571568119 M0,0 L5.010610900097683,5.010610900097683 M0,0 L-5.010610900097683,5.010610900097683 M0,0 L5.010610900097683,-5.010610900097683 M0,0 L-5.010610900097683,-5.010610900097683" stroke="#FFFFFF80" stroke-width="1" />
    </g>
    <g transform="translate(156.86880764123768, 84.0833532543045)">
      <path d="M0,0 L4.627621317608869,0 M0,0 L-4.627621317608869,0 M0,0 L0,4.627621317608869 M0,0 L0,-4.627621317608869 M0,0 L3.2393349223262082,3.2393349223262082 M0,0 L-3.2393349223262082,3.2393349223262082 M0,0 L3.2393349223262082,-3.2393349223262082 M0,0 L-3.2393349223262082,-3.2393349223262082" stroke="#FFFFFF80" stroke-width="1" />
    </g>
    <g transform="translate(119.07879572833018, 222.62419349460893)">
      <path d="M0,0 L5.585600292483286,0 M0,0 L-5.585600292483286,0 M0,0 L0,5.585600292483286 M0,0 L0,-5.585600292483286 M0,0 L3.9099202047382997,3.9099202047382997 M0,0 L-3.9099202047382997,3.9099202047382997 M0,0 L3.9099202047382997,-3.9099202047382997 M0,0 L-3.9099202047382997,-3.9099202047382997" stroke="#FFFFFF80" stroke-width="1" />
    </g>
    <g transform="translate(389.7336365574482, 28.700437412146073)">
      <path d="M0,0 L3.0697039871163696,0 M0,0 L-3.0697039871163696,0 M0,0 L0,3.0697039871163696 M0,0 L0,-3.0697039871163696 M0,0 L2.1487927909814584,2.1487927909814584 M0,0 L-2.1487927909814584,2.1487927909814584 M0,0 L2.1487927909814584,-2.1487927909814584 M0,0 L-2.1487927909814584,-2.1487927909814584" stroke="#FFFFFF80" stroke-width="1" />
    </g>
    <g transform="translate(84.08814337828585, 209.6935457583308)">
      <path d="M0,0 L4.480852246612068,0 M0,0 L-4.480852246612068,0 M0,0 L0,4.480852246612068 M0,0 L0,-4.480852246612068 M0,0 L3.1365965726284477,3.1365965726284477 M0,0 L-3.1365965726284477,3.1365965726284477 M0,0 L3.1365965726284477,-3.1365965726284477 M0,0 L-3.1365965726284477,-3.1365965726284477" stroke="#FFFFFF80" stroke-width="1" />
    </g>
    <g transform="translate(399.0235340329778, 287.9415483702973)">
      <path d="M0,0 L7.242432610805142,0 M0,0 L-7.242432610805142,0 M0,0 L0,7.242432610805142 M0,0 L0,-7.242432610805142 M0,0 L5.0697028275635985,5.0697028275635985 M0,0 L-5.0697028275635985,5.0697028275635985 M0,0 L5.0697028275635985,-5.0697028275635985 M0,0 L-5.0697028275635985,-5.0697028275635985" stroke="#FFFFFF80" stroke-width="1" />
    </g>
    <g transform="translate(330.5956361986224, 274.1646368994416)">
      <path d="M0,0 L3.944439838649438,0 M0,0 L-3.944439838649438,0 M0,0 L0,3.944439838649438 M0,0 L0,-3.944439838649438 M0,0 L2.761107887054606,2.761107887054606 M0,0 L-2.761107887054606,2.761107887054606 M0,0 L2.761107887054606,-2.761107887054606 M0,0 L-2.761107887054606,-2.761107887054606" stroke="#FFFFFF80" stroke-width="1" />
    </g>
    <g transform="translate(59.68967477408409, 260.8014387399698)">
      <path d="M0,0 L5.593320897942114,0 M0,0 L-5.593320897942114,0 M0,0 L0,5.593320897942114 M0,0 L0,-5.593320897942114 M0,0 L3.9153246285594796,3.9153246285594796 M0,0 L-3.9153246285594796,3.9153246285594796 M0,0 L3.9153246285594796,-3.9153246285594796 M0,0 L-3.9153246285594796,-3.9153246285594796" stroke="#FFFFFF80" stroke-width="1" />
    </g>
    <g transform="translate(333.7548046966374, 78.36814199255147)">
      <path d="M0,0 L3.4801771412908655,0 M0,0 L-3.4801771412908655,0 M0,0 L0,3.4801771412908655 M0,0 L0,-3.4801771412908655 M0,0 L2.436123998903606,2.436123998903606 M0,0 L-2.436123998903606,2.436123998903606 M0,0 L2.436123998903606,-2.436123998903606 M0,0 L-2.436123998903606,-2.436123998903606" stroke="#FFFFFF80" stroke-width="1" />
    </g>
    <g transform="translate(80.00690517835318, 274.6895583968799)">
      <path d="M0,0 L4.848135906739216,0 M0,0 L-4.848135906739216,0 M0,0 L0,4.848135906739216 M0,0 L0,-4.848135906739216 M0,0 L3.393695134717451,3.393695134717451 M0,0 L-3.393695134717451,3.393695134717451 M0,0 L3.393695134717451,-3.393695134717451 M0,0 L-3.393695134717451,-3.393695134717451" stroke="#FFFFFF80" stroke-width="1" />
    </g>
    <g transform="translate(287.5608468316187, 55.00977454765747)">
      <path d="M0,0 L6.251561635429304,0 M0,0 L-6.251561635429304,0 M0,0 L0,6.251561635429304 M0,0 L0,-6.251561635429304 M0,0 L4.376093144800513,4.376093144800513 M0,0 L-4.376093144800513,4.376093144800513 M0,0 L4.376093144800513,-4.376093144800513 M0,0 L-4.376093144800513,-4.376093144800513" stroke="#FFFFFF80" stroke-width="1" />
    </g>
    <g transform="translate(269.33561057410833, 44.78799720959461)">
      <path d="M0,0 L4.505732404623879,0 M0,0 L-4.505732404623879,0 M0,0 L0,4.505732404623879 M0,0 L0,-4.505732404623879 M0,0 L3.1540126832367155,3.1540126832367155 M0,0 L-3.1540126832367155,3.1540126832367155 M0,0 L3.1540126832367155,-3.1540126832367155 M0,0 L-3.1540126832367155,-3.1540126832367155" stroke="#FFFFFF80" stroke-width="1" />
    </g>
    <g transform="translate(5.905647744909004, 288.8784427644138)">
      <path d="M0,0 L3.547956175393584,0 M0,0 L-3.547956175393584,0 M0,0 L0,3.547956175393584 M0,0 L0,-3.547956175393584 M0,0 L2.4835693227755087,2.4835693227755087 M0,0 L-2.4835693227755087,2.4835693227755087 M0,0 L2.4835693227755087,-2.4835693227755087 M0,0 L-2.4835693227755087,-2.4835693227755087" stroke="#FFFFFF80" stroke-width="1" />
    </g>
    <g transform="translate(36.69624290224674, 289.65386101284116)">
      <path d="M0,0 L7.4303906022276625,0 M0,0 L-7.4303906022276625,0 M0,0 L0,7.4303906022276625 M0,0 L0,-7.4303906022276625 M0,0 L5.201273421559363,5.201273421559363 M0,0 L-5.201273421559363,5.201273421559363 M0,0 L5.201273421559363,-5.201273421559363 M0,0 L-5.201273421559363,-5.201273421559363" stroke="#FFFFFF80" stroke-width="1" />
    </g>
    <g transform="translate(217.47291662255753, 113.43448290691062)">
      <path d="M0,0 L7.496470722030738,0 M0,0 L-7.496470722030738,0 M0,0 L0,7.496470722030738 M0,0 L0,-7.496470722030738 M0,0 L5.247529505421516,5.247529505421516 M0,0 L-5.247529505421516,5.247529505421516 M0,0 L5.247529505421516,-5.247529505421516 M0,0 L-5.247529505421516,-5.247529505421516" stroke="#FFFFFF80" stroke-width="1" />
    </g>
    <g transform="translate(288.5022279460577, 163.2555783483582)">
      <path d="M0,0 L5.025495367988933,0 M0,0 L-5.025495367988933,0 M0,0 L0,5.025495367988933 M0,0 L0,-5.025495367988933 M0,0 L3.517846757592253,3.517846757592253 M0,0 L-3.517846757592253,3.517846757592253 M0,0 L3.517846757592253,-3.517846757592253 M0,0 L-3.517846757592253,-3.517846757592253" stroke="#FFFFFF80" stroke-width="1" />
    </g>
    <g transform="translate(244.7087974100541, 162.07996998949972)">
      <path d="M0,0 L4.841364075852065,0 M0,0 L-4.841364075852065,0 M0,0 L0,4.841364075852065 M0,0 L0,-4.841364075852065 M0,0 L3.388954853096445,3.388954853096445 M0,0 L-3.388954853096445,3.388954853096445 M0,0 L3.388954853096445,-3.388954853096445 M0,0 L-3.388954853096445,-3.388954853096445" stroke="#FFFFFF80" stroke-width="1" />
    </g>
    <g transform="translate(239.38051708808237, 191.7506716438553)">
      <path d="M0,0 L5.238691020851804,0 M0,0 L-5.238691020851804,0 M0,0 L0,5.238691020851804 M0,0 L0,-5.238691020851804 M0,0 L3.6670837145962625,3.6670837145962625 M0,0 L-3.6670837145962625,3.6670837145962625 M0,0 L3.6670837145962625,-3.6670837145962625 M0,0 L-3.6670837145962625,-3.6670837145962625" stroke="#FFFFFF80" stroke-width="1" />
    </g>
    <g transform="translate(15.19350270341251, 163.32292339897515)">
      <path d="M0,0 L7.733945989352359,0 M0,0 L-7.733945989352359,0 M0,0 L0,7.733945989352359 M0,0 L0,-7.733945989352359 M0,0 L5.413762192546652,5.413762192546652 M0,0 L-5.413762192546652,5.413762192546652 M0,0 L5.413762192546652,-5.413762192546652 M0,0 L-5.413762192546652,-5.413762192546652" stroke="#FFFFFF80" stroke-width="1" />
    </g>
  
  <!-- Main nature emoji -->
  <g>
    <!-- Light highlight circle for the emoji -->
    <circle cx="200" cy="120" r="70" fill="#ffffff80" />
    <text x="200" y="140" font-family="Arial, sans-serif" font-size="85" text-anchor="middle">❄️</text>
  </g>
  
  <!-- Nature item name -->
  <text x="200" y="230" font-family="Arial, sans-serif" font-size="34" font-weight="bold" text-anchor="middle" fill="#333333">SNOW</text>
  
  <!-- Decorative border with nature theme -->
  
</svg>