<?xml version="1.0" encoding="UTF-8"?>
<svg width="400" height="300" xmlns="http://www.w3.org/2000/svg">
  <!-- Base background -->
  <rect width="400" height="300" fill="#E0FFFF"/>
  
  <!-- Custom nature background elements -->
  
      <!-- Rain drops pattern -->
      <defs>
        <linearGradient id="skyRainGradient" x1="0%" y1="0%" x2="0%" y2="100%">
          <stop offset="0%" style="stop-color:#6495ED;stop-opacity:0.1" />
          <stop offset="100%" style="stop-color:#E0FFFF;stop-opacity:0.1" />
        </linearGradient>
      </defs>
      <rect width="400" height="300" fill="url(#skyRainGradient)" />
      <line x1="6.681930674123171" y1="176.7799430632527" x2="6.681930674123171" y2="187.36844727685346" stroke="#6495ED40" stroke-width="2" /><line x1="184.67971980215006" y1="224.1109469129929" x2="184.67971980215006" y2="232.8766761755762" stroke="#6495ED40" stroke-width="2" /><line x1="170.01698977921663" y1="117.34472781547251" x2="170.01698977921663" y2="127.3804411678768" stroke="#6495ED40" stroke-width="2" /><line x1="150.17769426720676" y1="128.42508145341336" x2="150.17769426720676" y2="134.16458808269425" stroke="#6495ED40" stroke-width="2" /><line x1="209.83614794913427" y1="196.58257487192793" x2="209.83614794913427" y2="203.6105192839273" stroke="#6495ED40" stroke-width="2" /><line x1="361.4241814981106" y1="184.6925957007689" x2="361.4241814981106" y2="198.65689063942528" stroke="#6495ED40" stroke-width="2" /><line x1="10.220312778673968" y1="222.613526601759" x2="10.220312778673968" y2="228.045689708151" stroke="#6495ED40" stroke-width="2" /><line x1="305.1915864841199" y1="94.29390172523424" x2="305.1915864841199" y2="104.13056104939935" stroke="#6495ED40" stroke-width="2" /><line x1="314.48010856049933" y1="185.99628826607784" x2="314.48010856049933" y2="198.68034571075378" stroke="#6495ED40" stroke-width="2" /><line x1="153.56632327447025" y1="233.26389965845124" x2="153.56632327447025" y2="245.64457604773295" stroke="#6495ED40" stroke-width="2" /><line x1="239.67627931557698" y1="82.7334303961703" x2="239.67627931557698" y2="97.11012696770712" stroke="#6495ED40" stroke-width="2" /><line x1="222.6217852734283" y1="139.9766219331393" x2="222.6217852734283" y2="148.67986525475317" stroke="#6495ED40" stroke-width="2" /><line x1="57.19304329639257" y1="172.73515144283417" x2="57.19304329639257" y2="186.97243772144105" stroke="#6495ED40" stroke-width="2" /><line x1="24.038717241876917" y1="138.34553655479084" x2="24.038717241876917" y2="145.65651503760208" stroke="#6495ED40" stroke-width="2" /><line x1="217.99892310802628" y1="8.877064554688863" x2="217.99892310802628" y2="14.96213563325907" stroke="#6495ED40" stroke-width="2" /><line x1="233.70769205977092" y1="164.72725906903747" x2="233.70769205977092" y2="179.51395894679666" stroke="#6495ED40" stroke-width="2" /><line x1="110.53715658305964" y1="38.84227085858905" x2="110.53715658305964" y2="48.0204361184873" stroke="#6495ED40" stroke-width="2" /><line x1="80.27250627984053" y1="264.510216208228" x2="80.27250627984053" y2="275.29067853783613" stroke="#6495ED40" stroke-width="2" /><line x1="356.50480210639404" y1="218.15667645698773" x2="356.50480210639404" y2="227.25338858653976" stroke="#6495ED40" stroke-width="2" /><line x1="368.8599226729393" y1="79.18899460424852" x2="368.8599226729393" y2="92.50676613696105" stroke="#6495ED40" stroke-width="2" /><line x1="201.92199168299356" y1="38.65565506232749" x2="201.92199168299356" y2="47.218284261673986" stroke="#6495ED40" stroke-width="2" /><line x1="212.587401973778" y1="3.406572720540957" x2="212.587401973778" y2="16.0709505684399" stroke="#6495ED40" stroke-width="2" /><line x1="307.1754936672058" y1="187.3116954398379" x2="307.1754936672058" y2="201.0613837296038" stroke="#6495ED40" stroke-width="2" /><line x1="378.43283155918766" y1="40.302302642318445" x2="378.43283155918766" y2="48.2987850299179" stroke="#6495ED40" stroke-width="2" /><line x1="190.84129723693323" y1="192.43088625007525" x2="190.84129723693323" y2="198.98349780998524" stroke="#6495ED40" stroke-width="2" /><line x1="33.70516711737026" y1="193.93639294324788" x2="33.70516711737026" y2="205.14557351296804" stroke="#6495ED40" stroke-width="2" /><line x1="306.4303397374926" y1="299.56450387164114" x2="306.4303397374926" y2="311.86143144963955" stroke="#6495ED40" stroke-width="2" /><line x1="209.27819025089693" y1="187.27807862884833" x2="209.27819025089693" y2="194.58940385612564" stroke="#6495ED40" stroke-width="2" /><line x1="39.610659655295464" y1="240.02305026708905" x2="39.610659655295464" y2="249.13778150469855" stroke="#6495ED40" stroke-width="2" /><line x1="244.05161025251815" y1="225.3332093152095" x2="244.05161025251815" y2="237.27659125487622" stroke="#6495ED40" stroke-width="2" />
      <ellipse cx="200" cy="80" rx="70" ry="35" fill="#DDDDDD50" />
      <ellipse cx="170" cy="70" rx="50" ry="30" fill="#EEEEEE40" />
      <ellipse cx="230" cy="70" rx="40" ry="25" fill="#EEEEEE40" />
  
  <!-- Main nature emoji -->
  <g>
    <!-- Light highlight circle for the emoji -->
    <circle cx="200" cy="120" r="70" fill="#ffffff80" />
    <text x="200" y="140" font-family="Arial, sans-serif" font-size="85" text-anchor="middle">🌧️</text>
  </g>
  
  <!-- Nature item name -->
  <text x="200" y="230" font-family="Arial, sans-serif" font-size="34" font-weight="bold" text-anchor="middle" fill="#333333">RAIN</text>
  
  <!-- Decorative border with nature theme -->
  
</svg>