<?xml version="1.0" encoding="UTF-8"?>
<svg width="400" height="300" xmlns="http://www.w3.org/2000/svg">
  <!-- Base background -->
  <rect width="400" height="300" fill="#FFF9C4"/>
  
  <!-- Custom action background -->
  
        <path d="M0,250 C50,245 100,255 150,250 C200,245 250,255 300,250 C350,245 400,255 400,250 L400,300 L0,300 Z" fill="#90EE9030" />
        <line x1="0" y1="250" x2="400" y2="250" stroke="#33333330" stroke-width="2" stroke-dasharray="5,5" />
      
  
  <!-- Main emoji -->
  <g>
    <!-- Motion lines or effect highlight circle -->
    
        <!-- Speed/motion lines for running -->
        <g>
          <path d="M120,120 L150,120 M100,100 L140,100 M90,140 L130,140" stroke="#33333340" stroke-width="5" stroke-linecap="round" />
          <path d="M250,120 L280,120 M260,100 L300,100 M270,140 L310,140" stroke="#33333340" stroke-width="5" stroke-linecap="round" />
          <circle cx="200" cy="120" r="70" fill="#ffffff60" />
        </g>
      
    <text x="200" y="140" font-family="Arial, sans-serif" font-size="85" text-anchor="middle">🏃</text>
  </g>
  
  <!-- Action name -->
  <text x="200" y="230" font-family="Arial, sans-serif" font-size="34" font-weight="bold" text-anchor="middle" fill="#333333">RUN</text>
  
  <!-- Decorative border -->
  
</svg>